<svg width="483" height="524" viewBox="0 0 483 524" fill="none" xmlns="http://www.w3.org/2000/svg">
<path d="M241.18 482.36C374.38 482.36 482.36 374.38 482.36 241.18C482.36 107.98 374.38 0 241.18 0C107.98 0 0 107.98 0 241.18C0 374.38 107.98 482.36 241.18 482.36Z" fill="url(#paint0_radial_862_12527)"/>
<g style="mix-blend-mode:soft-light">
<path d="M241.18 482.36C374.38 482.36 482.36 374.38 482.36 241.18C482.36 107.98 374.38 0 241.18 0C107.98 0 0 107.98 0 241.18C0 374.38 107.98 482.36 241.18 482.36Z" fill="url(#paint1_radial_862_12527)"/>
</g>
<g style="mix-blend-mode:soft-light">
<path d="M241.18 482.36C374.38 482.36 482.36 374.38 482.36 241.18C482.36 107.98 374.38 0 241.18 0C107.98 0 0 107.98 0 241.18C0 374.38 107.98 482.36 241.18 482.36Z" fill="url(#paint2_radial_862_12527)"/>
</g>
<g style="mix-blend-mode:overlay">
<path d="M241.18 482.36C374.38 482.36 482.36 374.38 482.36 241.18C482.36 107.98 374.38 0 241.18 0C107.98 0 0 107.98 0 241.18C0 374.38 107.98 482.36 241.18 482.36Z" fill="url(#paint3_radial_862_12527)" fill-opacity="0.7"/>
</g>
<mask id="mask0_862_12527" style="mask-type:alpha" maskUnits="userSpaceOnUse" x="0" y="0" width="483" height="483">
<path d="M241.18 482.36C374.38 482.36 482.36 374.38 482.36 241.18C482.36 107.98 374.38 0 241.18 0C107.98 0 0 107.98 0 241.18C0 374.38 107.98 482.36 241.18 482.36Z" fill="white"/>
</mask>
<g mask="url(#mask0_862_12527)">
<g filter="url(#filter0_f_862_12527)">
<path d="M-1.3759 234.299C-1.11402 230.872 0.0137008 230.529 0.342619 234.008C0.708055 237.874 -0.00231624 245.646 0.16871 250.335C0.621554 262.748 2.52441 273.541 4.48605 282.32C10.8075 310.612 19.5617 328.843 27.7268 344.288C54.5663 395.06 83.9667 420.77 112.648 440.147C154.689 468.549 197.072 477.584 239.49 479.5C240.56 479.548 240.738 486.518 239.686 487.425C237.788 489.061 235.436 487.437 233.494 487.369C227.915 487.174 222.335 486.791 216.756 486.211C200.213 484.492 183.67 480.991 167.162 475.358C122.275 460.044 73.8765 433.821 31.6092 359.962C28.9502 355.316 26.3124 350.424 23.7118 345.167C21.6321 340.963 19.5726 336.556 17.5493 331.843C10.8946 316.342 -4.61323 276.658 -1.3759 234.299ZM239.52 487.5C238.499 487.531 238.241 481.034 239.214 479.685C240.684 477.647 242.888 479.326 244.439 479.229C250.877 478.826 257.314 478.229 263.75 477.421C281.395 475.205 299.028 471.422 316.621 465.596C360.257 451.145 407.17 429.115 448.305 361.431C450.923 357.123 453.518 352.553 456.079 347.641C463.86 332.712 483.361 293.084 481.107 243.821C480.917 239.668 482.181 237.181 482.747 240.743C483.467 245.279 483.175 254.736 482.977 259.768C482.341 275.883 479.866 289.512 477.257 300.518C468.987 335.399 457.376 355.623 446.744 372.51C412.184 427.397 374.648 449.524 338.155 465.424C305.424 479.686 272.444 486.484 239.52 487.5Z" fill="#401C02"/>
</g>
<g filter="url(#filter1_f_862_12527)">
<path d="M-1.3759 234.299C-1.11402 230.872 0.0137008 230.529 0.342619 234.008C0.708055 237.874 -0.00231624 245.646 0.16871 250.335C0.621554 262.748 2.52441 273.541 4.48605 282.32C10.8075 310.612 19.5617 328.843 27.7268 344.288C54.5663 395.06 83.9667 420.77 112.648 440.147C154.689 468.549 197.072 477.584 239.49 479.5C240.56 479.548 240.738 486.518 239.686 487.425C237.788 489.061 235.436 487.437 233.494 487.369C227.915 487.174 222.335 486.791 216.756 486.211C200.213 484.492 183.67 480.991 167.162 475.358C122.275 460.044 73.8765 433.821 31.6092 359.962C28.9502 355.316 26.3124 350.424 23.7118 345.167C21.6321 340.963 19.5726 336.556 17.5493 331.843C10.8946 316.342 -4.61323 276.658 -1.3759 234.299ZM239.52 487.5C238.499 487.531 238.241 481.034 239.214 479.685C240.684 477.647 242.888 479.326 244.439 479.229C250.877 478.826 257.314 478.229 263.75 477.421C281.395 475.205 299.028 471.422 316.621 465.596C360.257 451.145 407.17 429.115 448.305 361.431C450.923 357.123 453.518 352.553 456.079 347.641C463.86 332.712 483.361 293.084 481.107 243.821C480.917 239.668 482.181 237.181 482.747 240.743C483.467 245.279 483.175 254.736 482.977 259.768C482.341 275.883 479.866 289.512 477.257 300.518C468.987 335.399 457.376 355.623 446.744 372.51C412.184 427.397 374.648 449.524 338.155 465.424C305.424 479.686 272.444 486.484 239.52 487.5Z" fill="#401C02"/>
</g>
</g>
<path d="M150.53 316.849C162.04 313.549 174.53 312.679 186.39 312.539C215.882 312.202 245.036 318.847 271.47 331.929C278.37 335.339 284.47 324.989 277.53 321.569C249.611 307.672 218.836 300.482 187.65 300.569C174.33 300.639 160.23 301.569 147.34 305.319C139.94 307.449 143.09 319.039 150.53 316.889V316.849Z" fill="url(#paint4_radial_862_12527)"/>
<path d="M150.53 316.849C162.04 313.549 174.53 312.679 186.39 312.539C215.882 312.202 245.036 318.847 271.47 331.929C278.37 335.339 284.47 324.989 277.53 321.569C249.611 307.672 218.836 300.482 187.65 300.569C174.33 300.639 160.23 301.569 147.34 305.319C139.94 307.449 143.09 319.039 150.53 316.889V316.849Z" stroke="url(#paint5_linear_862_12527)" stroke-width="2.5" stroke-miterlimit="10"/>
<path d="M171.435 179.817C173.508 161.015 163.831 144.521 149.821 142.977C135.812 141.433 122.775 155.423 120.703 174.225C118.63 193.027 128.307 209.52 142.317 211.065C156.326 212.609 169.363 198.619 171.435 179.817Z" fill="url(#paint6_radial_862_12527)"/>
<path d="M171.435 179.817C173.508 161.015 163.831 144.521 149.821 142.977C135.812 141.433 122.775 155.423 120.703 174.225C118.63 193.027 128.307 209.52 142.317 211.065C156.326 212.609 169.363 198.619 171.435 179.817Z" stroke="url(#paint7_linear_862_12527)" stroke-width="2" stroke-miterlimit="10"/>
<path d="M313.562 195.49C315.635 176.688 305.958 160.194 291.948 158.65C277.939 157.106 264.902 171.096 262.83 189.898C260.757 208.699 270.434 225.193 284.444 226.737C298.453 228.282 311.49 214.291 313.562 195.49Z" fill="url(#paint8_radial_862_12527)"/>
<path d="M313.562 195.49C315.635 176.688 305.958 160.194 291.948 158.65C277.939 157.106 264.902 171.096 262.83 189.898C260.757 208.699 270.434 225.193 284.444 226.737C298.453 228.282 311.49 214.291 313.562 195.49Z" stroke="url(#paint9_linear_862_12527)" stroke-width="2" stroke-miterlimit="10"/>
<path d="M370.16 128.93C361.16 123.34 305.55 91.4799 264.61 127.61C263.309 128.713 262.424 130.227 262.1 131.902C261.776 133.576 262.034 135.311 262.83 136.82C263.88 138.66 265.76 140.11 269.12 139.82C283.65 138.69 307.52 119.27 353.12 133.82C357.078 135.128 360.966 136.637 364.77 138.34C367.51 139.53 371.77 140.78 373.84 138.22C375.59 136.02 374.64 133.65 373.45 131.97C372.566 130.749 371.448 129.715 370.16 128.93Z" fill="#42210B"/>
<path d="M95.6505 118.79C106.161 107.56 120.651 99.38 136.071 97.85C147.194 96.6932 158.414 98.7769 168.381 103.85C172.871 106.23 176.681 109.65 181.061 112.23C183.971 113.95 189.501 117.51 193.011 115.56C198.431 112.56 180.381 82.47 146.691 80.66C115.071 78.93 92.9905 97.93 86.4105 112.68C85.9667 113.658 85.8118 114.742 85.9642 115.806C86.1166 116.869 86.5698 117.866 87.2705 118.68C87.3063 118.711 87.3398 118.744 87.3705 118.78C87.9018 119.345 88.5429 119.795 89.2544 120.103C89.966 120.411 90.733 120.571 91.5084 120.572C92.2838 120.573 93.0512 120.415 93.7635 120.109C94.4758 119.802 95.1179 119.353 95.6505 118.79Z" fill="#42210B"/>
<mask id="mask1_862_12527" style="mask-type:alpha" maskUnits="userSpaceOnUse" x="0" y="0" width="483" height="483">
<path d="M241.18 482.36C374.38 482.36 482.36 374.38 482.36 241.18C482.36 107.98 374.38 0 241.18 0C107.98 0 0 107.98 0 241.18C0 374.38 107.98 482.36 241.18 482.36Z" fill="url(#paint10_radial_862_12527)"/>
</mask>
<g mask="url(#mask1_862_12527)">
<g filter="url(#filter2_f_862_12527)">
<path d="M319.9 388.428C319.3 378.128 310.4 370.528 300.2 371.428C250.9 376.028 202.3 381.628 153.8 389.328C153.3 389.428 152.8 389.528 152.3 389.528C138.7 391.728 125.7 382.828 122.9 369.328L114.6 328.628C112.5 318.128 102.6 310.828 92 312.628C80.9 314.428 73.7 325.128 75.9 336.028L82 366.128C85 381.028 82.4 396.728 78.6 411.228C74.8 426.128 68 439.128 68 454.928C68.1 476.328 71.7 498.828 87.1 514.828C100.2 528.328 119 535.328 137.7 533.628L174.1 530.228L205.5 527.328C218.4 525.928 238.6 528.028 245.4 514.328C250.6 503.928 244.8 487.428 231.5 488.628C241.4 487.728 248.7 478.928 247.8 469.028C246.9 459.128 238.1 451.828 228.2 452.728C238.1 451.828 245.4 443.028 244.5 433.128C243.6 423.228 234.8 415.928 224.9 416.828L303.1 407.528C312.8 406.528 320.4 398.228 319.9 388.428Z" fill="#9B3800"/>
</g>
</g>
<path d="M319.9 378.428C319.3 368.128 310.4 360.528 300.2 361.428C250.9 366.028 202.3 371.628 153.8 379.328C153.3 379.428 152.8 379.528 152.3 379.528C138.7 381.728 125.7 372.828 122.9 359.328L114.6 318.628C112.5 308.128 102.6 300.828 92 302.628C80.9 304.428 73.7 315.128 75.9 326.028L82 356.128C85 371.028 82.4 386.728 78.6 401.228C74.8 416.128 68 429.128 68 444.928C68.1 466.328 71.7 488.828 87.1 504.828C100.2 518.328 119 525.328 137.7 523.628L174.1 520.228L205.5 517.328C218.4 515.928 238.6 518.028 245.4 504.328C250.6 493.928 244.8 477.428 231.5 478.628C241.4 477.728 248.7 468.928 247.8 459.028C246.9 449.128 238.1 441.828 228.2 442.728C238.1 441.828 245.4 433.028 244.5 423.128C243.6 413.228 234.8 405.928 224.9 406.828L303.1 397.528C312.8 396.528 320.4 388.228 319.9 378.428Z" fill="url(#paint11_radial_862_12527)"/>
<path d="M319.9 378.428C319.3 368.128 310.4 360.528 300.2 361.428C250.9 366.028 202.3 371.628 153.8 379.328C153.3 379.428 152.8 379.528 152.3 379.528C138.7 381.728 125.7 372.828 122.9 359.328L114.6 318.628C112.5 308.128 102.6 300.828 92 302.628C80.9 304.428 73.7 315.128 75.9 326.028L82 356.128C85 371.028 82.4 386.728 78.6 401.228C74.8 416.128 68 429.128 68 444.928C68.1 466.328 71.7 488.828 87.1 504.828C100.2 518.328 119 525.328 137.7 523.628L174.1 520.228L205.5 517.328C218.4 515.928 238.6 518.028 245.4 504.328C250.6 493.928 244.8 477.428 231.5 478.628C241.4 477.728 248.7 468.928 247.8 459.028C246.9 449.128 238.1 441.828 228.2 442.728C238.1 441.828 245.4 433.028 244.5 423.128C243.6 413.228 234.8 405.928 224.9 406.828L303.1 397.528C312.8 396.528 320.4 388.228 319.9 378.428Z" fill="url(#paint12_linear_862_12527)"/>
<mask id="mask2_862_12527" style="mask-type:alpha" maskUnits="userSpaceOnUse" x="68" y="302" width="252" height="222">
<path d="M319.9 378.428C319.3 368.128 310.4 360.528 300.2 361.428C250.9 366.028 202.3 371.628 153.8 379.328C153.3 379.428 152.8 379.528 152.3 379.528C138.7 381.728 125.7 372.828 122.9 359.328L114.6 318.628C112.5 308.128 102.6 300.828 92 302.628C80.9 304.428 73.7 315.128 75.9 326.028L82 356.128C85 371.028 82.4 386.728 78.6 401.228C74.8 416.128 68 429.128 68 444.928C68.1 466.328 71.7 488.828 87.1 504.828C100.2 518.328 119 525.328 137.7 523.628L174.1 520.228L205.5 517.328C218.4 515.928 238.6 518.028 245.4 504.328C250.6 493.928 244.8 477.428 231.5 478.628C241.4 477.728 248.7 468.928 247.8 459.028C246.9 449.128 238.1 441.828 228.2 442.728C238.1 441.828 245.4 433.028 244.5 423.128C243.6 413.228 234.8 405.928 224.9 406.828L303.1 397.528C312.8 396.528 320.4 388.228 319.9 378.428Z" fill="url(#paint13_radial_862_12527)"/>
</mask>
<g mask="url(#mask2_862_12527)">
<g filter="url(#filter3_f_862_12527)">
<path d="M137.7 523.627L174.3 519.727L192.6 517.827L201.7 516.927C204.7 516.627 207.8 516.227 210.9 516.027C217 515.627 223.2 515.327 229 514.027C231.9 513.327 234.7 512.427 237.3 510.927C239.8 509.527 242 507.527 243.4 505.127C246.4 500.327 246.5 493.927 244.4 488.627C243.3 486.027 241.6 483.627 239.4 482.127C237.2 480.527 234.4 480.027 231.7 480.227L231.4 477.027C235.7 476.627 239.8 474.427 242.5 471.127C245.2 467.827 246.5 463.427 246.1 459.127C245.7 454.827 243.5 450.827 240.2 448.227C236.9 445.527 232.6 444.227 228.4 444.627L228 440.627C232.2 440.227 236.2 438.127 238.8 434.827C241.5 431.627 242.8 427.327 242.4 423.127C242 418.927 239.9 415.027 236.7 412.427C233.5 409.727 229.2 408.427 225.1 408.927L224.6 404.427L287.2 396.827L302.9 394.927C307.5 394.527 311.8 392.027 314.5 388.327C317.2 384.627 318.1 379.827 317 375.427C315.9 371.027 312.7 367.227 308.6 365.227C306.6 364.227 304.3 363.727 302 363.627L300.3 363.727L298.3 363.927L294.4 364.327L278.8 366.027C268.3 367.027 257.9 368.127 247.5 369.327C226.6 371.627 205.8 374.127 185 377.027C174.6 378.427 164.2 379.927 153.8 381.527C152.6 381.727 151.1 381.927 149.7 382.027H147.6C146.9 382.027 146.2 381.927 145.5 381.827C142.7 381.527 139.9 380.827 137.3 379.727C134.7 378.527 132.3 377.027 130.2 375.227C128 373.427 126.3 371.127 124.8 368.727C124 367.527 123.5 366.227 122.9 364.927C122.4 363.627 121.9 362.327 121.6 360.927C121.2 359.527 121 358.327 120.8 357.027L119.8 353.027L116.8 337.527L113.8 322.027L113.4 320.127C113.3 319.527 113.2 318.827 113 318.227C112.8 317.627 112.7 317.027 112.5 316.427C112.3 315.827 112.1 315.227 111.8 314.727C110.8 312.527 109.4 310.427 107.6 308.827C104.1 305.427 99.2 303.427 94.3 303.627C89.4 303.827 84.6 306.027 81.3 309.727C78 313.327 76.2 318.427 76.5 323.427C76.6 324.627 76.8 325.927 77.1 327.227L77.8 331.127L79.3 338.827L82.3 354.327C82.8 356.927 83.2 359.527 83.5 362.127C83.8 364.727 83.8 367.427 83.8 370.027C83.6 380.627 81.4 391.027 78.6 401.127C81.1 390.927 82.9 380.527 82.8 370.027C82.8 367.427 82.6 364.827 82.3 362.227C82 359.627 81.5 357.127 81 354.527L77.7 339.227L76 331.527L75.2 327.627C74.9 326.327 74.7 325.027 74.5 323.627C74 318.127 75.8 312.427 79.5 308.227C83.1 303.927 88.6 301.327 94.2 301.027C99.8 300.727 105.5 302.927 109.6 306.727C111.7 308.627 113.3 310.927 114.5 313.527C114.8 314.127 115 314.827 115.3 315.527C115.6 316.227 115.7 316.827 115.9 317.527C116.1 318.227 116.2 318.827 116.3 319.527L116.7 321.427L119.9 336.827L123.1 352.227L123.9 356.127C124.2 357.427 124.4 358.727 124.7 359.927C125 361.127 125.4 362.227 125.8 363.427C126.3 364.527 126.8 365.627 127.5 366.627C128.8 368.627 130.4 370.527 132.2 372.127C134.1 373.727 136.1 374.927 138.4 375.927C140.6 376.927 143 377.427 145.4 377.627C146 377.627 146.6 377.727 147.2 377.727H149C149.6 377.727 150.2 377.627 150.8 377.527C151.4 377.427 152 377.327 152.7 377.227C163.1 375.527 173.5 373.927 183.9 372.427C204.7 369.427 225.6 366.727 246.5 364.427C257 363.227 267.4 362.127 277.9 361.127L293.6 359.627L297.5 359.227L299.5 359.027C300.2 359.027 301 358.927 301.7 358.927C304.7 358.927 307.7 359.627 310.4 360.927C315.8 363.527 320 368.527 321.4 374.327C322.1 377.227 322.2 380.227 321.7 383.227C321.1 386.127 319.9 388.927 318.1 391.327C314.6 396.127 308.9 399.327 303 399.827L287.3 401.627L224.7 408.927L224.2 404.427C229.5 403.927 235 405.627 239 409.127C243.1 412.527 245.7 417.627 246.2 422.827C246.7 428.127 245 433.527 241.6 437.527C238.2 441.627 233.2 444.227 227.9 444.627L227.5 440.627C232.7 440.127 238.1 441.827 242.1 445.227C246.1 448.627 248.7 453.527 249.1 458.727C249.6 463.927 247.9 469.227 244.5 473.227C241.2 477.227 236.2 479.727 231.1 480.127L230.8 476.927C234.2 476.627 237.8 477.427 240.6 479.427C243.4 481.427 245.4 484.327 246.6 487.327C247.8 490.427 248.3 493.727 248.1 496.927C247.9 500.227 247 503.427 245.2 506.227C243.5 509.027 240.9 511.327 238.1 512.827C235.3 514.427 232.2 515.327 229.1 515.927C222.9 517.127 216.7 517.227 210.6 517.527C207.5 517.627 204.5 517.927 201.5 518.127L192.3 518.827L173.9 520.327L137.7 523.627Z" fill="#FF5B00"/>
</g>
</g>
<mask id="mask3_862_12527" style="mask-type:alpha" maskUnits="userSpaceOnUse" x="68" y="302" width="252" height="222">
<path d="M319.9 378.428C319.3 368.128 310.4 360.528 300.2 361.428C250.9 366.028 202.3 371.628 153.8 379.328C153.3 379.428 152.8 379.528 152.3 379.528C138.7 381.728 125.7 372.828 122.9 359.328L114.6 318.628C112.5 308.128 102.6 300.828 92 302.628C80.9 304.428 73.7 315.128 75.9 326.028L82 356.128C85 371.028 82.4 386.728 78.6 401.228C74.8 416.128 68 429.128 68 444.928C68.1 466.328 71.7 488.828 87.1 504.828C100.2 518.328 119 525.328 137.7 523.628L174.1 520.228L205.5 517.328C218.4 515.928 238.6 518.028 245.4 504.328C250.6 493.928 244.8 477.428 231.5 478.628C241.4 477.728 248.7 468.928 247.8 459.028C246.9 449.128 238.1 441.828 228.2 442.728C238.1 441.828 245.4 433.028 244.5 423.128C243.6 413.228 234.8 405.928 224.9 406.828L303.1 397.528C312.8 396.528 320.4 388.228 319.9 378.428Z" fill="url(#paint14_radial_862_12527)"/>
</mask>
<g mask="url(#mask3_862_12527)">
<g filter="url(#filter4_f_862_12527)">
<path d="M137.7 523.627L174.3 519.727L192.6 517.827L201.7 516.927C204.7 516.627 207.8 516.227 210.9 516.027C217 515.627 223.2 515.327 229 514.027C231.9 513.327 234.7 512.427 237.3 510.927C239.8 509.527 242 507.527 243.4 505.127C246.4 500.327 246.5 493.927 244.4 488.627C243.3 486.027 241.6 483.627 239.4 482.127C237.2 480.527 234.4 480.027 231.7 480.227L231.4 477.027C235.7 476.627 239.8 474.427 242.5 471.127C245.2 467.827 246.5 463.427 246.1 459.127C245.7 454.827 243.5 450.827 240.2 448.227C236.9 445.527 232.6 444.227 228.4 444.627L228 440.627C232.2 440.227 236.2 438.127 238.8 434.827C241.5 431.627 242.8 427.327 242.4 423.127C242 418.927 239.9 415.027 236.7 412.427C233.5 409.727 229.2 408.427 225.1 408.927L224.6 404.427L287.2 396.827L302.9 394.927C307.5 394.527 311.8 392.027 314.5 388.327C317.2 384.627 318.1 379.827 317 375.427C315.9 371.027 312.7 367.227 308.6 365.227C306.6 364.227 304.3 363.727 302 363.627L300.3 363.727L298.3 363.927L294.4 364.327L278.8 366.027C268.3 367.027 257.9 368.127 247.5 369.327C226.6 371.627 205.8 374.127 185 377.027C174.6 378.427 164.2 379.927 153.8 381.527C152.6 381.727 151.1 381.927 149.7 382.027H147.6C146.9 382.027 146.2 381.927 145.5 381.827C142.7 381.527 139.9 380.827 137.3 379.727C134.7 378.527 132.3 377.027 130.2 375.227C128 373.427 126.3 371.127 124.8 368.727C124 367.527 123.5 366.227 122.9 364.927C122.4 363.627 121.9 362.327 121.6 360.927C121.2 359.527 121 358.327 120.8 357.027L119.8 353.027L116.8 337.527L113.8 322.027L113.4 320.127C113.3 319.527 113.2 318.827 113 318.227C112.8 317.627 112.7 317.027 112.5 316.427C112.3 315.827 112.1 315.227 111.8 314.727C110.8 312.527 109.4 310.427 107.6 308.827C104.1 305.427 99.2 303.427 94.3 303.627C89.4 303.827 84.6 306.027 81.3 309.727C78 313.327 76.2 318.427 76.5 323.427C76.6 324.627 76.8 325.927 77.1 327.227L77.8 331.127L79.3 338.827L82.3 354.327C82.8 356.927 83.2 359.527 83.5 362.127C83.8 364.727 83.8 367.427 83.8 370.027C83.6 380.627 81.4 391.027 78.6 401.127C81.1 390.927 82.9 380.527 82.8 370.027C82.8 367.427 82.6 364.827 82.3 362.227C82 359.627 81.5 357.127 81 354.527L77.7 339.227L76 331.527L75.2 327.627C74.9 326.327 74.7 325.027 74.5 323.627C74 318.127 75.8 312.427 79.5 308.227C83.1 303.927 88.6 301.327 94.2 301.027C99.8 300.727 105.5 302.927 109.6 306.727C111.7 308.627 113.3 310.927 114.5 313.527C114.8 314.127 115 314.827 115.3 315.527C115.6 316.227 115.7 316.827 115.9 317.527C116.1 318.227 116.2 318.827 116.3 319.527L116.7 321.427L119.9 336.827L123.1 352.227L123.9 356.127C124.2 357.427 124.4 358.727 124.7 359.927C125 361.127 125.4 362.227 125.8 363.427C126.3 364.527 126.8 365.627 127.5 366.627C128.8 368.627 130.4 370.527 132.2 372.127C134.1 373.727 136.1 374.927 138.4 375.927C140.6 376.927 143 377.427 145.4 377.627C146 377.627 146.6 377.727 147.2 377.727H149C149.6 377.727 150.2 377.627 150.8 377.527C151.4 377.427 152 377.327 152.7 377.227C163.1 375.527 173.5 373.927 183.9 372.427C204.7 369.427 225.6 366.727 246.5 364.427C257 363.227 267.4 362.127 277.9 361.127L293.6 359.627L297.5 359.227L299.5 359.027C300.2 359.027 301 358.927 301.7 358.927C304.7 358.927 307.7 359.627 310.4 360.927C315.8 363.527 320 368.527 321.4 374.327C322.1 377.227 322.2 380.227 321.7 383.227C321.1 386.127 319.9 388.927 318.1 391.327C314.6 396.127 308.9 399.327 303 399.827L287.3 401.627L224.7 408.927L224.2 404.427C229.5 403.927 235 405.627 239 409.127C243.1 412.527 245.7 417.627 246.2 422.827C246.7 428.127 245 433.527 241.6 437.527C238.2 441.627 233.2 444.227 227.9 444.627L227.5 440.627C232.7 440.127 238.1 441.827 242.1 445.227C246.1 448.627 248.7 453.527 249.1 458.727C249.6 463.927 247.9 469.227 244.5 473.227C241.2 477.227 236.2 479.727 231.1 480.127L230.8 476.927C234.2 476.627 237.8 477.427 240.6 479.427C243.4 481.427 245.4 484.327 246.6 487.327C247.8 490.427 248.3 493.727 248.1 496.927C247.9 500.227 247 503.427 245.2 506.227C243.5 509.027 240.9 511.327 238.1 512.827C235.3 514.427 232.2 515.327 229.1 515.927C222.9 517.127 216.7 517.227 210.6 517.527C207.5 517.627 204.5 517.927 201.5 518.127L192.3 518.827L173.9 520.327L137.7 523.627Z" fill="#B04B02"/>
</g>
</g>
<mask id="mask4_862_12527" style="mask-type:alpha" maskUnits="userSpaceOnUse" x="68" y="302" width="252" height="222">
<path d="M319.9 378.428C319.3 368.128 310.4 360.528 300.2 361.428C250.9 366.028 202.3 371.628 153.8 379.328C153.3 379.428 152.8 379.528 152.3 379.528C138.7 381.728 125.7 372.828 122.9 359.328L114.6 318.628C112.5 308.128 102.6 300.828 92 302.628C80.9 304.428 73.7 315.128 75.9 326.028L82 356.128C85 371.028 82.4 386.728 78.6 401.228C74.8 416.128 68 429.128 68 444.928C68.1 466.328 71.7 488.828 87.1 504.828C100.2 518.328 119 525.328 137.7 523.628L174.1 520.228L205.5 517.328C218.4 515.928 238.6 518.028 245.4 504.328C250.6 493.928 244.8 477.428 231.5 478.628C241.4 477.728 248.7 468.928 247.8 459.028C246.9 449.128 238.1 441.828 228.2 442.728C238.1 441.828 245.4 433.028 244.5 423.128C243.6 413.228 234.8 405.928 224.9 406.828L303.1 397.528C312.8 396.528 320.4 388.228 319.9 378.428Z" fill="url(#paint15_radial_862_12527)"/>
</mask>
<g mask="url(#mask4_862_12527)">
<g filter="url(#filter5_f_862_12527)">
<path d="M97.9004 363.627C97.9004 363.627 114.4 436.227 213.5 404.027" stroke="#FFFDA9" stroke-width="20" stroke-miterlimit="10"/>
</g>
</g>
<defs>
<filter id="filter0_f_862_12527" x="-26.8149" y="206.558" width="535.022" height="306.595" filterUnits="userSpaceOnUse" color-interpolation-filters="sRGB">
<feFlood flood-opacity="0" result="BackgroundImageFix"/>
<feBlend mode="normal" in="SourceGraphic" in2="BackgroundImageFix" result="shape"/>
<feGaussianBlur stdDeviation="12.5" result="effect1_foregroundBlur_862_12527"/>
</filter>
<filter id="filter1_f_862_12527" x="-41.8149" y="191.558" width="565.022" height="336.595" filterUnits="userSpaceOnUse" color-interpolation-filters="sRGB">
<feFlood flood-opacity="0" result="BackgroundImageFix"/>
<feBlend mode="normal" in="SourceGraphic" in2="BackgroundImageFix" result="shape"/>
<feGaussianBlur stdDeviation="20" result="effect1_foregroundBlur_862_12527"/>
</filter>
<filter id="filter2_f_862_12527" x="38" y="282.354" width="311.923" height="281.524" filterUnits="userSpaceOnUse" color-interpolation-filters="sRGB">
<feFlood flood-opacity="0" result="BackgroundImageFix"/>
<feBlend mode="normal" in="SourceGraphic" in2="BackgroundImageFix" result="shape"/>
<feGaussianBlur stdDeviation="15" result="effect1_foregroundBlur_862_12527"/>
</filter>
<filter id="filter3_f_862_12527" x="60.418" y="287" width="275.594" height="250.627" filterUnits="userSpaceOnUse" color-interpolation-filters="sRGB">
<feFlood flood-opacity="0" result="BackgroundImageFix"/>
<feBlend mode="normal" in="SourceGraphic" in2="BackgroundImageFix" result="shape"/>
<feGaussianBlur stdDeviation="7" result="effect1_foregroundBlur_862_12527"/>
</filter>
<filter id="filter4_f_862_12527" x="62.418" y="289" width="271.594" height="246.627" filterUnits="userSpaceOnUse" color-interpolation-filters="sRGB">
<feFlood flood-opacity="0" result="BackgroundImageFix"/>
<feBlend mode="normal" in="SourceGraphic" in2="BackgroundImageFix" result="shape"/>
<feGaussianBlur stdDeviation="6" result="effect1_foregroundBlur_862_12527"/>
</filter>
<filter id="filter5_f_862_12527" x="43.1523" y="316.355" width="218.438" height="150.902" filterUnits="userSpaceOnUse" color-interpolation-filters="sRGB">
<feFlood flood-opacity="0" result="BackgroundImageFix"/>
<feBlend mode="normal" in="SourceGraphic" in2="BackgroundImageFix" result="shape"/>
<feGaussianBlur stdDeviation="22.5" result="effect1_foregroundBlur_862_12527"/>
</filter>
<radialGradient id="paint0_radial_862_12527" cx="0" cy="0" r="1" gradientUnits="userSpaceOnUse" gradientTransform="translate(241 -4.53898e-06) rotate(90) scale(482)">
<stop stop-color="#FFDE43"/>
<stop offset="1" stop-color="#FFBC00"/>
</radialGradient>
<radialGradient id="paint1_radial_862_12527" cx="0" cy="0" r="1" gradientUnits="userSpaceOnUse" gradientTransform="translate(241 64.5) rotate(90) scale(417.5)">
<stop stop-color="white" stop-opacity="0.5"/>
<stop offset="0.782278"/>
</radialGradient>
<radialGradient id="paint2_radial_862_12527" cx="0" cy="0" r="1" gradientUnits="userSpaceOnUse" gradientTransform="translate(241 64.5) rotate(90) scale(417.5)">
<stop stop-color="white" stop-opacity="0.5"/>
<stop offset="0.782278"/>
</radialGradient>
<radialGradient id="paint3_radial_862_12527" cx="0" cy="0" r="1" gradientUnits="userSpaceOnUse" gradientTransform="translate(241 -52.5) rotate(90) scale(534.5 722.835)">
<stop offset="0.0922635" stop-color="white"/>
<stop offset="0.670207" stop-color="white" stop-opacity="0"/>
</radialGradient>
<radialGradient id="paint4_radial_862_12527" cx="0" cy="0" r="1" gradientUnits="userSpaceOnUse" gradientTransform="translate(211.856 316.524) scale(51.8814 32.3629)">
<stop stop-color="#743C1C"/>
<stop offset="1" stop-color="#401C02"/>
</radialGradient>
<linearGradient id="paint5_linear_862_12527" x1="211.856" y1="333.511" x2="211.856" y2="299.537" gradientUnits="userSpaceOnUse">
<stop offset="0.265625" stop-color="#FFDE43"/>
<stop offset="1" stop-color="#F79D14"/>
</linearGradient>
<radialGradient id="paint6_radial_862_12527" cx="0" cy="0" r="1" gradientUnits="userSpaceOnUse" gradientTransform="translate(146.047 177.066) rotate(-83.71) scale(43.6604 25.5643)">
<stop stop-color="#743C1C"/>
<stop offset="1" stop-color="#401C02"/>
</radialGradient>
<linearGradient id="paint7_linear_862_12527" x1="172.863" y1="179.974" x2="119.07" y2="174.045" gradientUnits="userSpaceOnUse">
<stop stop-color="#FFDE43"/>
<stop offset="0.22" stop-color="#FED93F"/>
<stop offset="0.51" stop-color="#FCC934"/>
<stop offset="0.82" stop-color="#F9AF21"/>
<stop offset="1" stop-color="#F79D14"/>
</linearGradient>
<radialGradient id="paint8_radial_862_12527" cx="0" cy="0" r="1" gradientUnits="userSpaceOnUse" gradientTransform="translate(288.174 192.739) rotate(-83.71) scale(43.6604 25.5643)">
<stop stop-color="#743C1C"/>
<stop offset="1" stop-color="#401C02"/>
</radialGradient>
<linearGradient id="paint9_linear_862_12527" x1="314.99" y1="195.647" x2="261.197" y2="189.718" gradientUnits="userSpaceOnUse">
<stop stop-color="#FFDE43"/>
<stop offset="0.22" stop-color="#FED93F"/>
<stop offset="0.51" stop-color="#FCC934"/>
<stop offset="0.82" stop-color="#F9AF21"/>
<stop offset="1" stop-color="#F79D14"/>
</linearGradient>
<radialGradient id="paint10_radial_862_12527" cx="0" cy="0" r="1" gradientUnits="userSpaceOnUse" gradientTransform="translate(241 -4.53898e-06) rotate(90) scale(482)">
<stop stop-color="#FFDE43"/>
<stop offset="1" stop-color="#FFBC00"/>
</radialGradient>
<radialGradient id="paint11_radial_862_12527" cx="0" cy="0" r="1" gradientUnits="userSpaceOnUse" gradientTransform="translate(236.397 290.865) scale(237.348 237.348)">
<stop offset="0.0139674" stop-color="#FFDE43"/>
<stop offset="0.2736" stop-color="#FEDB40"/>
<stop offset="0.4774" stop-color="#FBD139"/>
<stop offset="0.6623" stop-color="#F7C02B"/>
<stop offset="0.8348" stop-color="#F0A918"/>
<stop offset="0.9991" stop-color="#E88B00"/>
<stop offset="1" stop-color="#E88B00"/>
</radialGradient>
<linearGradient id="paint12_linear_862_12527" x1="168" y1="364" x2="91" y2="524" gradientUnits="userSpaceOnUse">
<stop stop-color="#F0A918" stop-opacity="0"/>
<stop offset="0.9991" stop-color="#C73C00"/>
</linearGradient>
<radialGradient id="paint13_radial_862_12527" cx="0" cy="0" r="1" gradientUnits="userSpaceOnUse" gradientTransform="translate(236.397 290.865) scale(237.348 237.348)">
<stop offset="0.0139674" stop-color="#FFDE43"/>
<stop offset="0.2736" stop-color="#FEDB40"/>
<stop offset="0.4774" stop-color="#FBD139"/>
<stop offset="0.6623" stop-color="#F7C02B"/>
<stop offset="0.8348" stop-color="#F0A918"/>
<stop offset="0.9991" stop-color="#E88B00"/>
<stop offset="1" stop-color="#E88B00"/>
</radialGradient>
<radialGradient id="paint14_radial_862_12527" cx="0" cy="0" r="1" gradientUnits="userSpaceOnUse" gradientTransform="translate(236.397 290.865) scale(237.348 237.348)">
<stop offset="0.0139674" stop-color="#FFDE43"/>
<stop offset="0.2736" stop-color="#FEDB40"/>
<stop offset="0.4774" stop-color="#FBD139"/>
<stop offset="0.6623" stop-color="#F7C02B"/>
<stop offset="0.8348" stop-color="#F0A918"/>
<stop offset="0.9991" stop-color="#E88B00"/>
<stop offset="1" stop-color="#E88B00"/>
</radialGradient>
<radialGradient id="paint15_radial_862_12527" cx="0" cy="0" r="1" gradientUnits="userSpaceOnUse" gradientTransform="translate(236.397 290.865) scale(237.348 237.348)">
<stop offset="0.0139674" stop-color="#FFDE43"/>
<stop offset="0.2736" stop-color="#FEDB40"/>
<stop offset="0.4774" stop-color="#FBD139"/>
<stop offset="0.6623" stop-color="#F7C02B"/>
<stop offset="0.8348" stop-color="#F0A918"/>
<stop offset="0.9991" stop-color="#E88B00"/>
<stop offset="1" stop-color="#E88B00"/>
</radialGradient>
</defs>
</svg>
